<svg xmlns="http://www.w3.org/2000/svg" viewBox="0 0 16 16"><path fill="#f44336" d="M8.5 1H3.5C2.67 1 2 1.67 2 2.5v11c0 .83.67 1.5 1.5 1.5h9c.83 0 1.5-.67 1.5-1.5V5.5L8.5 1zm-3 10.5c0 .28-.22.5-.5.5s-.5-.22-.5-.5v-1H4c-.55 0-1-.45-1-1V9c0-.55.45-1 1-1h1c.28 0 .5.22.5.5v3zm3.5-1c0 .83-.67 1.5-1.5 1.5H7v.5c0 .28-.22.5-.5.5s-.5-.22-.5-.5v-3c0-.28.22-.5.5-.5h1c.83 0 1.5.67 1.5 1.5zm3 0c0 .28-.22.5-.5.5h-.5v.5c0 .28-.22.5-.5.5s-.5-.22-.5-.5v-2c0-.55.45-1 1-1h.5c.28 0 .5.22.5.5v2zM4 9.5V10h.5V9H4c-.28 0-.5.22-.5.5zm3 0v1h.5c.28 0 .5-.22.5-.5s-.22-.5-.5-.5H7z"/></svg>
